<?xml version="1.0" standalone="no"?>
<!DOCTYPE svg PUBLIC "-//W3C//DTD SVG 20010904//EN"
 "http://www.w3.org/TR/2001/REC-SVG-20010904/DTD/svg10.dtd">
<svg version="1.0" xmlns="http://www.w3.org/2000/svg"
 width="512.000000pt" height="512.000000pt" viewBox="0 0 512.000000 512.000000"
 preserveAspectRatio="xMidYMid meet">
<metadata>
Created by potrace 1.11, written by Peter Selinger 2001-2013
</metadata>
<g transform="translate(0.000000,512.000000) scale(0.100000,-0.100000)"
fill="#000000" stroke="none">
<path d="M500 5104 c-234 -50 -436 -254 -485 -489 -22 -105 -22 -4005 0 -4110
50 -238 252 -440 490 -490 105 -22 4005 -22 4110 0 238 50 440 252 490 490 22
105 22 4005 0 4110 -50 238 -252 440 -490 490 -102 21 -4015 21 -4115 -1z
m424 -1421 c3 -10 77 -346 166 -748 88 -401 164 -738 168 -748 4 -11 73 255
192 745 l186 763 221 3 221 2 35 -147 c19 -82 102 -431 183 -776 94 -399 151
-622 156 -610 4 10 80 340 168 733 89 393 166 734 172 758 l10 42 229 0 c126
0 229 -3 229 -6 0 -4 -128 -508 -285 -1120 -157 -612 -285 -1115 -285 -1118 0
-3 -106 -6 -235 -6 l-234 0 -9 32 c-5 18 -87 363 -182 765 -96 403 -176 731
-178 728 -2 -2 -84 -345 -181 -762 l-177 -758 -239 -3 -240 -2 -279 1112
c-154 612 -281 1119 -284 1126 -3 9 47 12 231 12 216 0 236 -1 241 -17z m3266
-588 c224 -51 379 -193 425 -386 8 -35 15 -74 15 -87 l0 -22 -202 2 -203 3 -6
35 c-7 42 -30 89 -56 112 -37 34 -115 60 -192 65 -163 11 -259 -36 -268 -133
-4 -40 0 -55 19 -84 38 -57 111 -88 332 -142 110 -27 230 -58 266 -70 156 -50
263 -130 315 -235 25 -50 30 -73 33 -159 7 -177 -33 -291 -143 -400 -112 -113
-269 -170 -500 -181 -272 -13 -498 54 -632 187 -33 33 -75 87 -92 119 -33 63
-61 163 -61 224 l0 37 199 0 199 0 7 -42 c16 -94 84 -172 179 -205 78 -27 225
-24 293 6 68 30 119 86 128 140 22 130 -61 187 -393 267 -271 66 -378 108
-462 182 -86 75 -128 194 -115 324 25 257 179 404 475 453 111 19 338 13 440
-10z"/>
</g>
</svg>
